# xmcd CD database file
#
# Track frame offsets:
#	150
#	23092
#	44482
#	56450
#	68912
#	84605
#	101432
#	117592
#	135300
#	150412
#	169797
#	192985
#	211465
#	225520
#	243400
#	263882
#	282355
#
# Disc length: 3798 seconds
#
# Revision: 0
# Processed by: cddbd v1.5.2PL0 Copyright (c) Steve Scherf et al.
# Submitted via: CDex 1.70beta2
#
DISCID=e90ed411
DTITLE=Jim Beatty - Strictly Dixie and Blues
DYEAR=1900
DGENRE=Jazz
TTITLE0=Fidgety Feet 
TTITLE1=New Orleans 
TTITLE2=Ory's Creole Trombone 
TTITLE3=Little Orphan Annie 
TTITLE4=Sidewalks of Paris 
TTITLE5=Weary Blues 
TTITLE6=Buddy Bolden Blues 
TTITLE7=When You and I Were Young 
TTITLE8=Maggie Blues 
TTITLE9=Battle Hymn of the Republic 
TTITLE10=My Honey's Lovin Arms 
TTITLE11=Canal Street Blues 
TTITLE12=The Girl With the Golden Hair 
TTITLE13=Louisiana 
TTITLE14=Dr. Jazz 
TTITLE15=Into Each Life Some Rain Must Fall 
TTITLE16=S.O.S.
EXTD=
EXTT0=
EXTT1=
EXTT2=
EXTT3=
EXTT4=
EXTT5=
EXTT6=
EXTT7=
EXTT8=
EXTT9=
EXTT10=
EXTT11=
EXTT12=
EXTT13=
EXTT14=
EXTT15=
EXTT16=
PLAYORDER=
